<svg width="345" height="345" viewBox="0 0 345 345" fill="none" xmlns="http://www.w3.org/2000/svg">
<rect width="345" height="345" fill="#1E1E1E"/>
<rect width="345" height="345" fill="black"/>
<path fill-rule="evenodd" clip-rule="evenodd" d="M230.318 31.9272C218.643 12.782 197.564 0 173.5 0C149.356 0 128.217 12.8672 116.566 32.1184C94.0485 25.6119 68.7684 31.2316 51.0226 48.9774C33.0831 66.9169 27.5359 92.5559 34.3809 115.257C13.882 126.586 0 148.422 0 173.5C0 198.093 13.3499 219.568 33.1982 231.073C28.232 252.662 34.1584 276.249 50.9774 293.068C68.3493 310.44 92.9412 316.191 115.094 310.322C126.375 330.984 148.301 345 173.5 345C198.628 345 220.5 331.063 231.81 310.498C253.737 315.996 277.92 310.17 295.068 293.023C312.017 276.073 317.905 252.25 312.729 230.526C332.065 218.895 345 197.708 345 173.5C345 148.792 331.525 127.231 311.523 115.766C318.584 92.9507 313.084 67.0842 295.023 49.0226C277.497 31.4967 252.622 25.7983 230.318 31.9272Z" fill="white"/>
<path d="M96 188.286L137.896 230.182L248.182 119.896" stroke="black" stroke-width="30" stroke-linecap="square"/>
</svg>
